<svg id="Слой_1" data-name="Слой 1" xmlns="http://www.w3.org/2000/svg" viewBox="0 0 869.57704 250">
  <defs>
    <style>
      .cls-1 {
        fill: #0a0aff;
      }

      .cls-2, .cls-3 {
        fill: #fff;
      }

      .cls-3 {
        stroke: #fff;
        stroke-miterlimit: 10;
      }
    </style>
  </defs>
  <rect class="cls-1" width="237.5731" height="250"/>
  <g>
    <path class="cls-1" d="M321.05811,75.49512V90.52881H296.3125v77.82861H277.687V90.52881h-24.7456V75.49512Z" transform="translate(-0.00499 -0.29282)"/>
    <path class="cls-1" d="M334.29541,111.4165a32.66239,32.66239,0,0,1,12.10693-13.3042,32.23274,32.23274,0,0,1,17.09571-4.65625,30.052,30.052,0,0,1,14.43506,3.32569,29.31489,29.31489,0,0,1,9.91113,8.38183V94.65332H406.604v73.7041H387.84424V157.58105a27.71543,27.71543,0,0,1-9.91113,8.58106,30.33085,30.33085,0,0,1-14.56836,3.39258,31.32321,31.32321,0,0,1-16.96241-4.78907,33.5,33.5,0,0,1-12.10693-13.5039,43.34544,43.34544,0,0,1-4.457-20.02246A42.64406,42.64406,0,0,1,334.29541,111.4165Zm50.88818,8.44776a18.78562,18.78562,0,0,0-7.18408-7.4502,19.20437,19.20437,0,0,0-9.71191-2.59424,18.70449,18.70449,0,0,0-16.69678,9.91163,23.12888,23.12888,0,0,0-2.72754,11.50781,23.88157,23.88157,0,0,0,2.72754,11.64062,19.61387,19.61387,0,0,0,7.18408,7.65039,18.23038,18.23038,0,0,0,9.5127,2.66016,19.20389,19.20389,0,0,0,9.71191-2.59375,18.77289,18.77289,0,0,0,7.18408-7.4502,23.89731,23.89731,0,0,0,2.66065-11.6416A23.89737,23.89737,0,0,0,385.18359,119.86426Z" transform="translate(-0.00499 -0.29282)"/>
    <path class="cls-1" d="M436.80176,166.29492a28.67881,28.67881,0,0,1-11.37451-8.84668,22.42629,22.42629,0,0,1-4.58985-12.373h18.7583a10.20394,10.20394,0,0,0,4.19043,7.05078,14.56912,14.56912,0,0,0,9.11328,2.79394q5.32032,0,8.31543-2.12793a6.4407,6.4407,0,0,0,2.99317-5.45508q0-3.59179-3.65821-5.38769a68.87083,68.87083,0,0,0-11.6416-3.92481,98.50528,98.50528,0,0,1-13.50244-4.125,23.40784,23.40784,0,0,1-9.04687-6.51855q-3.79248-4.3894-3.792-11.84033a19.109,19.109,0,0,1,3.5254-11.1753,23.67772,23.67772,0,0,1,10.11083-7.98242,37.93085,37.93085,0,0,1,15.499-2.92676q13.17188,0,21.02051,6.58545,7.84863,6.58521,8.64843,17.76075H463.543a9.65192,9.65192,0,0,0-3.6582-6.98438,13.60432,13.60432,0,0,0-8.71485-2.59424q-5.05663,0-7.78222,1.86231a5.9386,5.9386,0,0,0-2.72754,5.18847,6.09412,6.09412,0,0,0,3.72558,5.6543A57.73758,57.73758,0,0,0,455.96,124.85352a98.37691,98.37691,0,0,1,13.1709,4.124,23.29785,23.29785,0,0,1,8.98047,6.585q3.791,4.459,3.9248,11.77441a19.53216,19.53216,0,0,1-3.52539,11.44141,23.21806,23.21806,0,0,1-10.11133,7.916,38.32167,38.32167,0,0,1-15.36621,2.86035A38.86377,38.86377,0,0,1,436.80176,166.29492Z" transform="translate(-0.00499 -0.29282)"/>
    <path class="cls-1" d="M540.97266,168.35742,515.96094,136.96v31.39746H497.335V69.90771h18.626V125.918l24.74511-31.26465h24.21387L532.458,131.63867l32.72754,36.71875Z" transform="translate(-0.00499 -0.29282)"/>
    <path class="cls-1" d="M632.37207,75.49512V90.52881H593.65723v23.81445h29.668v14.76709h-29.668v39.24707h-18.626V75.49512Z" transform="translate(-0.00499 -0.29282)"/>
    <path class="cls-1" d="M664.169,69.90771v98.44971H645.543V69.90771Z" transform="translate(-0.00499 -0.29282)"/>
    <path class="cls-1" d="M696.09863,164.832a33.99162,33.99162,0,0,1-13.37109-13.37109,40.04678,40.04678,0,0,1-4.85547-19.95606,39.21889,39.21889,0,0,1,4.98926-19.95556,34.67216,34.67216,0,0,1,13.63672-13.37061,41.76108,41.76108,0,0,1,38.582,0,34.69134,34.69134,0,0,1,13.63672,13.37061,39.22824,39.22824,0,0,1,4.98828,19.95556,38.41293,38.41293,0,0,1-5.12207,19.95606A35.46556,35.46556,0,0,1,734.74707,164.832a40.22859,40.22859,0,0,1-19.49023,4.72266A38.80443,38.80443,0,0,1,696.09863,164.832Zm28.66992-13.96973a17.89035,17.89035,0,0,0,7.11817-7.38378,24.87988,24.87988,0,0,0,2.66113-11.97364q0-10.50732-5.52148-16.16357a18.15209,18.15209,0,0,0-13.50391-5.6543,17.72308,17.72308,0,0,0-13.37012,5.6543q-5.38915,5.65577-5.38867,16.16357,0,10.51173,5.25488,16.165a17.29939,17.29939,0,0,0,13.23829,5.6543A19.3622,19.3622,0,0,0,724.76855,150.8623Z" transform="translate(-0.00499 -0.29282)"/>
    <path class="cls-1" d="M869.582,94.65332l-21.55273,73.7041H827.94043l-13.4375-51.48633-13.4375,51.48633H780.84375L759.1582,94.65332h18.8916l13.03809,56.14258,14.10254-56.14258h19.68945l13.83692,56.00977,13.03711-56.00977Z" transform="translate(-0.00499 -0.29282)"/>
  </g>
  <rect class="cls-2" x="108.67446" y="43.5625" width="26.14938" height="183.04569" rx="13.07468"/>
  <path class="cls-3" d="M65.79446,46.99325v0c0-7.22094,5.49358-13.07467,12.27025-13.07467H225.30784c6.77667,0,12.27025,5.85373,12.27025,13.07467v0c0,7.22095-5.49358,13.07468-12.27025,13.07468H78.06471C71.288,60.06793,65.79446,54.2142,65.79446,46.99325Z" transform="translate(-0.00499 -0.29282)"/>
  <rect class="cls-2" x="157.31232" y="43.5625" width="26.14938" height="183.04569" rx="13.07468"/>
  <rect class="cls-2" x="184.69096" y="79.59677" width="26.14938" height="59.26401" rx="13.07468" transform="translate(306.98944 -88.8297) rotate(90)"/>
  <rect class="cls-3" x="114.03509" y="33.62573" width="123.53801" height="26.31579"/>
</svg>
