<svg width="200" height="200" viewBox="0 0 200 200" fill="none" xmlns="http://www.w3.org/2000/svg">
<path fill-rule="evenodd" clip-rule="evenodd" d="M0 0H200V200H0V0Z" fill="white" style="fill:white;fill-opacity:1;"/>
<path fill-rule="evenodd" clip-rule="evenodd" d="M48.8251 123.069C47.8612 123.069 46.9471 122.206 46.9471 121.395V50.6082C46.9471 50.1257 46.3639 49.4409 45.7549 49.4409H28.4511C25.686 49.4409 23.4282 51.7495 23.4282 54.4389V64.3333C23.4282 64.5875 23.8339 64.9164 24.0622 64.9164H27.3606C28.3505 64.9164 29.3144 65.8295 29.3144 66.8951C29.3144 67.1234 29.2376 67.4284 29.1868 67.5799L10.032 119.923C9.11892 122.359 6.30189 123.627 3.86668 123.069C3.86668 123.069 3.7152 123.018 3.63842 123.018C3.25762 123.018 2.97852 123.374 2.97852 123.729L3.71416 136.238C3.84075 138.445 7.41833 139.257 9.60036 139.257H17.7703C21.5761 139.257 24.113 135.222 24.113 132.025V123.449C24.113 123.169 23.7073 122.688 23.3514 122.688C23.2248 122.688 23.0723 122.74 22.9717 122.74C22.661 122.743 22.353 122.683 22.0655 122.566C21.778 122.448 21.5168 122.275 21.2971 122.055C21.0775 121.835 20.9038 121.574 20.7862 121.287C20.6686 120.999 20.6094 120.691 20.6122 120.38C20.6122 120.05 20.8145 119.569 20.8405 119.415L24.748 108.633H35.9881V120.151C35.9881 121.471 35.0232 122.74 33.8569 122.968L32.258 123.273L32.0038 123.323C31.8432 123.359 31.6999 123.45 31.5983 123.58C31.4966 123.709 31.4427 123.87 31.4456 124.035V133.474C31.4964 134.437 31.8004 135.351 32.257 136.163C33.3485 137.989 35.3521 139.232 37.5092 139.232L44.4859 139.258C47.2511 139.258 49.9156 136.694 49.9156 133.878V123.958C49.9156 123.551 49.3584 123.069 48.8251 123.069ZM35.9871 98.3577H28.5269L32.257 88.2091L35.9871 78.0605V98.3577ZM78.3328 86.7627H81.4279C81.8845 86.7627 82.3161 86.3062 82.3161 85.8496V71.337C82.3161 70.9313 81.9094 70.4997 81.4788 70.4997C79.2968 70.4239 77.1407 70.9313 75.2886 71.946C73.7156 72.8332 72.3201 74.1779 71.4827 75.7768C71.407 75.9034 71.2804 76.0051 71.1279 76.0051C70.8996 76.0051 70.7222 75.7768 70.7222 75.5994V71.641C70.7222 71.1845 70.3414 70.7539 69.8589 70.7539H59.5329C56.7667 70.7539 54.484 72.9867 54.484 75.7778V85.6473C54.484 85.9264 54.9406 86.2813 55.0931 86.2813H57.6559C58.3667 86.2813 59.0515 86.8644 59.0515 87.6519V120.482C59.0515 121.725 58.1125 122.689 56.9203 122.968L55.0174 123.375C54.8667 123.408 54.7318 123.491 54.6348 123.611C54.5379 123.731 54.4847 123.88 54.484 124.035V133.523C54.484 136.797 57.4526 139.258 60.7002 139.258H69.2758C72.1426 139.258 74.7055 136.771 74.7055 133.878V123.958C74.7055 123.475 74.1223 123.07 73.589 123.07H72.1177C71.0521 123.07 70.2397 122.183 70.2397 121.167V94.8558C70.2387 90.416 73.892 86.7627 78.3328 86.7627Z" fill="#CC2229" stroke="#CC2229" style="fill:#CC2229;fill:color(display-p3 0.8000 0.1333 0.1608);fill-opacity:1;stroke:#CC2229;stroke:color(display-p3 0.8000 0.1333 0.1608);stroke-opacity:1;" stroke-width="2.80147" stroke-miterlimit="2.613"/>
<path fill-rule="evenodd" clip-rule="evenodd" d="M101.902 71.3367C100.558 72.0723 99.3152 73.1639 98.2237 74.6352C98.122 74.7368 97.9197 74.8634 97.7422 74.8634C97.4382 74.8634 97.184 74.5594 97.184 74.2544V46.0415C97.184 45.6099 96.7773 45.1533 96.2709 45.1533H85.9947C85.3316 45.1529 84.6749 45.2832 84.0621 45.5368C83.4494 45.7904 82.8926 46.1623 82.4237 46.6312C81.9548 47.1001 81.5829 47.6568 81.3294 48.2696C81.0758 48.8823 80.9455 49.539 80.9459 50.2022V60.0717C80.9459 60.4016 81.2499 60.6807 81.5549 60.6807H84.0918C84.8275 60.6807 85.4614 61.3147 85.4614 62.0503V120.481C85.4614 121.724 84.5732 122.688 83.3302 122.967L81.4781 123.373C81.1233 123.449 80.9199 123.702 80.9199 124.033V133.522C80.9199 136.796 83.8874 139.257 87.1361 139.257H95.4575C95.7117 139.257 96.0157 138.952 96.0157 138.697V134.436C96.0157 134.234 96.3456 133.954 96.5739 133.878C96.7762 133.802 97.0304 134.029 97.1072 134.234C98.1469 136.39 99.8734 138.091 101.902 139.155C103.483 139.956 105.23 140.373 107.003 140.373C113.879 140.373 118.012 134.945 118.012 128.55V82.0435C118.012 73.112 108.88 67.5308 101.902 71.3367ZM106.673 119.644C106.673 122.258 104.54 124.415 101.929 124.415H101.903C100.645 124.406 99.443 123.898 98.5588 123.004C97.6746 122.11 97.1806 120.902 97.185 119.644V91.7096C97.185 88.5377 99.5196 86.9398 101.879 86.9398H101.903C104.339 86.9398 106.674 88.6145 106.674 91.7096L106.673 119.644ZM155.869 70.9808H149.981C146.887 70.9808 143.715 73.6194 143.715 76.7653V86.1533C143.715 86.3816 144.019 86.7614 144.273 86.8641L145.312 87.2698C146.556 87.4731 147.444 88.5128 147.444 89.7309V119.594C147.444 122.434 145.212 124.82 142.193 124.871C139.174 124.896 136.914 122.993 136.914 119.594L136.967 89.7309C136.967 88.5128 137.93 87.7263 139.046 87.2698L140.062 86.8641C140.392 86.7126 140.619 86.4833 140.619 86.1533V76.7653C140.619 73.6194 137.677 70.9808 134.532 70.9808H128.57C126.985 70.9583 125.453 71.5466 124.291 72.6236C123.129 73.7007 122.426 75.1838 122.328 76.7653V86.2042C122.328 86.5341 122.555 86.8381 122.885 86.9149L123.901 87.3217C124.494 87.4028 125.038 87.6974 125.431 88.1503C125.823 88.6032 126.037 89.1835 126.033 89.7828V131.316C127.859 140.831 140.062 143.824 146.075 136.212V141.465C145.867 143.378 145.218 145.217 144.179 146.837C143.14 148.457 141.739 149.814 140.087 150.801C138.541 151.626 136.817 152.062 135.065 152.07H134.785L127.453 151.994C120.652 152.805 120.628 162.624 127.403 163.513C130.851 163.97 134.353 163.97 137.778 163.513C141.333 163.043 144.737 161.783 147.74 159.825C150.743 157.867 153.27 155.261 155.134 152.199C157.037 149.077 158.153 145.5 158.33 141.871V89.7818C158.33 88.5387 159.244 87.498 160.462 87.3206L161.478 86.9139C161.782 86.8381 161.984 86.5331 161.984 86.2031V76.7643C161.804 73.4679 159.039 70.9808 155.869 70.9808ZM192.301 112.287L179.234 93.9176C178.143 92.3186 177.839 90.2134 178.067 88.2845C178.373 85.7736 181.949 85.4945 182.661 87.9048C182.989 89.097 183.042 90.5184 183.269 91.6079C183.346 92.0904 183.93 92.826 184.538 92.826H187.355C190.348 92.826 192.734 90.4406 192.734 87.498V76.7653C192.734 73.7719 190.325 71.3865 187.406 71.3865H184.64C184.234 71.3865 183.347 72.3504 183.347 72.7312V75.624C183.347 75.8273 183.144 76.0556 182.889 76.0556C182.738 76.0556 182.585 75.9799 182.561 75.9041C181.445 74.4079 180.125 72.9615 178.679 71.7943C177.356 70.7086 175.697 70.1165 173.986 70.1196C172.826 70.1205 171.682 70.3971 170.65 70.9266C169.617 71.456 168.725 72.2232 168.048 73.1649C166.246 75.6758 165.233 78.6952 165.233 81.7903C165.233 82.4751 165.284 83.161 165.358 83.7949C165.918 88.1081 167.134 92.3965 169.468 95.999L182.738 117.058C183.22 117.818 183.372 118.782 183.372 119.721C183.372 121.751 182.23 123.704 180.378 124.642C177.284 126.266 173.401 124.034 173.401 120.482V112.134C173.401 111.399 172.817 110.79 172.106 110.79H168.326C165.128 110.79 162.439 113.453 162.439 116.65V134.334C162.433 135.109 162.581 135.877 162.875 136.594C163.169 137.311 163.602 137.962 164.15 138.51C164.698 139.058 165.349 139.491 166.066 139.785C166.783 140.078 167.551 140.227 168.326 140.221H171.802C172.486 140.221 173.071 139.713 173.147 139.078L173.475 136.491C173.552 136.008 174.162 135.857 174.415 136.237C176.646 139.382 180.326 141.234 184.183 141.234C187.024 141.234 189.79 140.27 191.92 138.469C194.967 135.932 196.792 132.177 196.995 128.245C196.995 127.813 197.021 127.408 197.021 126.976C197.021 121.724 195.321 116.624 192.301 112.287Z" fill="#CC2229" stroke="#CC2229" style="fill:#CC2229;fill:color(display-p3 0.8000 0.1333 0.1608);fill-opacity:1;stroke:#CC2229;stroke:color(display-p3 0.8000 0.1333 0.1608);stroke-opacity:1;" stroke-width="2.80147" stroke-miterlimit="2.613"/>
<path fill-rule="evenodd" clip-rule="evenodd" d="M146.684 55.7847L143.537 56.5204L153.254 63.523C153.483 63.7253 153.534 63.827 153.331 64.157L151.809 66.7198L163.503 65.4V75.5486H164.164V65.3751L174.134 66.7198L172.586 64.157C172.41 63.827 172.461 63.7253 172.688 63.523L182.381 56.5204L179.234 55.7847C178.879 55.5814 178.779 55.3282 178.906 54.9723L180.479 50.1517L175.557 51.7506C175.151 51.8014 175 51.7755 174.821 51.4466L174.896 47.5899L168.198 54.2626C168.047 54.2367 167.971 54.135 168.097 53.831L170.661 41.1963L165.968 43.3524C165.587 43.4541 165.459 43.4292 165.232 43.2767L162.972 36.1475L160.714 43.2767C160.461 43.4292 160.359 43.4541 159.979 43.3524L155.259 41.1963L157.846 53.831C157.974 54.135 157.897 54.2367 157.721 54.2626L151.047 47.5899L151.098 51.4466C150.946 51.7765 150.768 51.8014 150.386 51.7506L145.439 50.1517L147.038 54.9723C147.165 55.3271 147.063 55.5803 146.684 55.7847Z" fill="#CC2229" stroke="#CC2229" style="fill:#CC2229;fill:color(display-p3 0.8000 0.1333 0.1608);fill-opacity:1;stroke:#CC2229;stroke:color(display-p3 0.8000 0.1333 0.1608);stroke-opacity:1;" stroke-width="2.80147" stroke-miterlimit="2.613"/>
</svg>
