<svg width="280" height="200" viewBox="0 0 280 200" fill="none" xmlns="http://www.w3.org/2000/svg">
<g clip-path="url(#clip0_134_10)">
<path d="M78.9066 72.6362C78.8344 75.9786 79.1796 79.3153 79.9308 82.5362C80.7583 85.2906 81.7547 87.9684 82.9118 90.5478C83.3261 91.3105 83.5521 92.1973 83.5639 93.1064C83.5639 94.2185 83.005 95.3318 81.7945 96.4433L75.9278 101.115C75.2199 101.724 74.3783 102.072 73.5068 102.116C72.4461 102.029 71.4504 101.474 70.7132 100.559C69.4579 98.9485 68.3349 97.1979 67.3595 95.3312C66.4285 93.4402 65.4964 91.3254 64.4728 88.7681C57.2091 99 48.0826 104.116 37.0934 104.116C29.2683 104.116 23.0316 101.445 18.4686 96.1044C13.9055 90.7633 11.5771 83.6483 11.5771 74.7497C11.5771 65.2948 14.3708 57.6196 20.0517 51.8353C25.7326 46.0511 33.2751 43.1587 42.8669 43.1587C46.1704 43.1909 49.4683 43.4883 52.7383 44.0489C56.184 44.6052 59.7229 45.4948 63.4475 46.4962V38.3759C63.4475 29.9192 61.957 24.0269 59.0708 20.5781C56.0898 17.13 51.062 15.4615 43.8911 15.4615C40.5022 15.4614 37.1255 15.9468 33.8335 16.9074C30.4101 17.8816 27.049 19.1455 23.7758 20.6894C22.7168 21.2554 21.628 21.7384 20.5164 22.1353C20.0342 22.3252 19.533 22.4375 19.0259 22.4691C17.7223 22.4691 17.0702 21.357 17.0702 19.021V13.5706C17.0702 11.7902 17.2565 10.4549 17.7223 9.67731C18.425 8.66338 19.3189 7.86281 20.3306 7.34123C24.0658 5.13374 28.0037 3.45396 32.0646 2.33591C36.8098 0.881535 41.6933 0.171058 46.5921 0.222381C57.6761 0.222381 65.7759 3.22545 70.991 9.23222C76.113 15.239 78.7203 24.3601 78.7203 36.5962V72.6362H78.9066ZM41.098 89.5438C44.365 89.5009 47.6044 88.8246 50.6899 87.5415C54.108 86.1291 57.1576 83.6742 59.5366 80.4201C61.0377 78.3698 62.1214 75.9325 62.7028 73.2987C63.3426 70.1304 63.6553 66.8804 63.6338 63.6213V58.9542C60.8103 58.1332 57.9504 57.5019 55.0677 57.0632C52.1638 56.6238 49.2398 56.4019 46.3127 56.3988C40.0733 56.3988 35.5103 57.8447 32.4372 60.8496C29.3641 63.8546 27.8741 68.0798 27.8741 73.6414C27.8741 78.8693 28.992 82.7626 31.3198 85.4324C33.5556 88.2136 36.8145 89.5482 41.098 89.5482V89.5438ZM115.877 101.557C114.201 101.557 113.084 101.224 112.338 100.445C111.593 99.7776 110.942 98.2198 110.383 96.1069L88.4975 10.1224C88.0732 8.68308 87.792 7.18922 87.6596 5.67152C87.6596 3.89117 88.4048 2.89036 89.8953 2.89036H99.0214C100.791 2.89036 102.002 3.22418 102.653 4.00244C103.399 4.67008 103.957 6.22788 104.517 8.34077L120.161 81.9779L134.688 8.34268C135.154 6.11725 135.713 4.67198 136.458 4.00435C137.203 3.33672 138.507 2.89227 140.184 2.89227H147.637C149.406 2.89227 150.618 3.22608 151.363 4.00435C152.108 4.67198 152.76 6.22979 153.132 8.34268L167.846 82.87L183.952 8.34268C184.511 6.11725 185.162 4.67198 185.815 4.00435C186.56 3.33672 187.77 2.89227 189.447 2.89227H198.108C199.598 2.89227 200.436 3.78244 200.436 5.67343C200.414 6.27192 200.352 6.86731 200.25 7.45378C200.104 8.40263 199.885 9.33356 199.598 10.2349L177.154 96.2195C176.596 98.444 175.944 99.8901 175.199 100.558C174.146 101.363 172.908 101.752 171.66 101.67H163.65C161.881 101.67 160.669 101.336 159.924 100.558C159.179 99.7795 158.527 98.3323 158.155 96.1069L143.721 24.3601L129.38 95.9956C128.914 98.2211 128.355 99.6663 127.61 100.447C126.865 101.227 125.561 101.559 123.884 101.559L115.877 101.557ZM235.543 104.56C230.713 104.567 225.9 103.894 221.202 102.558C216.546 101.223 212.914 99.777 210.493 98.1073C209.002 97.1065 207.978 95.9937 207.606 94.9916C207.243 94.0097 207.053 92.9493 207.047 91.876V86.2069C207.047 83.8708 207.792 82.7587 209.189 82.7587C209.759 82.761 210.325 82.8738 210.865 83.0926C211.424 83.3151 212.262 83.7602 213.194 84.2046C216.483 85.9327 219.917 87.2378 223.437 88.0979C227.085 88.9823 230.797 89.4296 234.519 89.4331C240.386 89.4331 244.95 88.2098 248.116 85.7624C249.633 84.6692 250.88 83.1154 251.731 81.2593C252.582 79.4032 253.006 77.3109 252.96 75.1954C252.993 73.7635 252.787 72.3379 252.356 71.0014C251.924 69.6648 251.275 68.4438 250.446 67.409C248.77 65.2954 245.602 63.4032 241.04 61.6228L227.534 56.6181C220.736 54.0601 215.707 50.2782 212.635 45.2716C209.636 40.6552 208 34.9848 207.978 29.1422C207.903 24.8353 208.769 20.5793 210.493 16.7949C212.156 13.2163 214.443 10.1058 217.2 7.67378C220.102 5.0491 223.386 3.08748 226.885 1.88764C230.697 0.576986 234.649 -0.0590456 238.616 -0.000162657C240.702 -0.0182238 242.786 0.130471 244.855 0.444925C246.997 0.77874 248.954 1.22383 250.908 1.66828C252.772 2.22464 254.54 2.78036 256.217 3.44863C257.576 3.95072 258.887 4.62181 260.128 5.45089C261.225 6.11137 262.18 7.06268 262.922 8.23205C263.527 9.31448 263.822 10.603 263.76 11.9027V17.1306C263.76 19.4667 263.014 20.6913 261.618 20.6913C260.872 20.6913 259.662 20.2462 258.079 19.356C252.77 16.4638 246.81 15.0177 240.199 15.0177C234.89 15.0177 230.7 16.0185 227.813 18.1333C224.926 20.2481 223.436 23.4744 223.436 28.0333C223.411 29.5104 223.647 30.9773 224.128 32.3382C224.609 33.6991 225.326 34.9234 226.23 35.9311C228.093 38.0446 231.538 40.1582 236.474 42.0491L249.698 47.0519C256.405 49.6105 261.246 53.17 264.132 57.7302C266.975 62.2049 268.483 67.6867 268.416 73.3032C268.464 77.7711 267.635 82.1902 265.995 86.2063C264.342 90.0135 262.024 93.3518 259.197 95.995C256.122 98.8537 252.611 100.97 248.86 102.226C244.546 103.811 240.055 104.599 235.542 104.562L235.543 104.56Z" fill="#252F3E" style="fill:#252F3E;fill:color(display-p3 0.1451 0.1843 0.2431);fill-opacity:1;"/>
<path d="M253.144 158.619C222.506 185.649 177.992 199.998 139.718 199.998C86.0773 200 37.7453 176.307 1.24139 136.93C-1.64538 133.815 0.961922 129.589 4.40763 132.034C43.8925 159.398 92.5971 175.971 142.978 175.971C176.968 175.971 214.311 167.514 248.675 150.164C253.797 147.383 258.173 154.17 253.146 158.621L253.144 158.619Z" fill="#FF9900" style="fill:#FF9900;fill:color(display-p3 1.0000 0.6000 0.0000);fill-opacity:1;"/>
<path d="M265.902 141.268C261.991 135.262 240.013 138.376 230.049 139.822C227.068 140.267 226.603 137.152 229.303 134.817C246.811 120.134 275.587 124.361 278.939 129.255C282.293 134.261 278.008 168.632 261.618 185.095C259.104 187.654 256.682 186.319 257.8 182.982C261.525 171.969 269.814 147.164 265.902 141.268Z" fill="#FF9900" style="fill:#FF9900;fill:color(display-p3 1.0000 0.6000 0.0000);fill-opacity:1;"/>
</g>
<defs>
<clipPath id="clip0_134_10">
<rect width="280" height="200" fill="white" style="fill:white;fill-opacity:1;"/>
</clipPath>
</defs>
</svg>
