<svg width="200" height="200" viewBox="0 0 200 200" fill="none" xmlns="http://www.w3.org/2000/svg">
<g clip-path="url(#clip0_134_2)">
<path d="M199.895 101.871C199.895 93.6772 199.214 87.6978 197.742 81.4971H101.992V118.48H158.195C157.062 127.671 150.943 141.512 137.346 150.813L137.155 152.051L167.429 174.97L169.527 175.174C188.789 157.789 199.895 132.211 199.895 101.871Z" fill="#4285F4" style="fill:#4285F4;fill:color(display-p3 0.2588 0.5216 0.9569);fill-opacity:1;"/>
<path d="M101.992 199.313C129.526 199.313 152.642 190.454 169.526 175.174L137.345 150.813C128.733 156.681 117.175 160.778 101.992 160.778C75.0233 160.778 52.1342 143.394 43.9749 119.366L42.7789 119.465L11.2994 143.272L10.8877 144.391C27.6578 176.945 62.1051 199.313 101.992 199.313Z" fill="#34A853" style="fill:#34A853;fill:color(display-p3 0.2039 0.6588 0.3255);fill-opacity:1;"/>
<path d="M43.9757 119.366C41.8228 113.166 40.5769 106.521 40.5769 99.6564C40.5769 92.7907 41.8228 86.1472 43.8625 79.9465L43.8054 78.6258L11.9314 54.4365L10.8885 54.9213C3.97674 68.4304 0.0107422 83.6006 0.0107422 99.6564C0.0107422 115.712 3.97674 130.882 10.8885 144.391L43.9757 119.366Z" fill="#FBBC05" style="fill:#FBBC05;fill:color(display-p3 0.9843 0.7373 0.0196);fill-opacity:1;"/>
<path d="M101.992 38.5336C121.141 38.5336 134.059 46.6168 141.424 53.3718L170.206 25.9107C152.529 9.85496 129.526 0 101.992 0C62.1051 0 27.6578 22.3672 10.8877 54.9214L43.8616 79.9466C52.1342 55.9183 75.0233 38.5336 101.992 38.5336Z" fill="#EB4335" style="fill:#EB4335;fill:color(display-p3 0.9216 0.2627 0.2078);fill-opacity:1;"/>
</g>
<defs>
<clipPath id="clip0_134_2">
<rect width="200" height="200" fill="white" style="fill:white;fill-opacity:1;"/>
</clipPath>
</defs>
</svg>
