<svg width="121" height="126" viewBox="0 0 121 126" fill="none" xmlns="http://www.w3.org/2000/svg">
<path fill-rule="evenodd" clip-rule="evenodd" d="M77.5837 0.783195L8.20866 5.89153C2.61699 6.37486 0.666992 10.0207 0.666992 14.3915V90.2165C0.666992 93.6207 1.88366 96.5332 4.80449 100.425L21.1128 121.567C23.792 124.971 26.2253 125.7 31.342 125.458L111.904 120.596C118.717 120.112 120.667 116.95 120.667 111.604V26.304C120.667 23.5374 119.571 22.7415 116.346 20.3874C116.163 20.253 115.979 20.1182 115.796 19.9832L93.6503 4.42903C88.2962 0.545695 86.1045 0.0540283 77.5837 0.783195ZM33.167 24.904C26.5878 25.3457 25.0962 25.4457 21.3587 22.4165L11.8587 14.8832C10.892 13.9082 11.3795 12.6915 13.8087 12.4499L80.5045 7.59153C86.1003 7.10403 89.0212 9.04986 91.2128 10.7499L102.655 19.0124C103.142 19.2582 104.354 20.7124 102.896 20.7124L34.017 24.8457L33.167 24.904ZM25.4962 110.875V38.4582C25.4962 35.2957 26.467 33.8374 29.3878 33.5915L108.492 28.9749C111.175 28.7332 112.392 30.4332 112.392 33.5915V105.525C112.392 108.687 111.905 111.362 107.517 111.604L31.8212 115.979C27.442 116.221 25.4962 114.767 25.4962 110.875ZM100.225 42.3415C100.709 44.529 100.225 46.7165 98.0295 46.9665L94.3795 47.6874V101.154C91.2128 102.854 88.2962 103.825 85.8628 103.825C81.967 103.825 80.9878 102.608 78.0712 98.9665L54.2128 61.5415V97.7499L61.7628 99.454C61.7628 99.454 61.7628 103.829 55.6712 103.829L38.8795 104.8C38.3962 103.825 38.8795 101.4 40.5878 100.912L44.9628 99.6999V51.8249L38.8795 51.3332C38.3962 49.1457 39.6087 45.9874 43.0212 45.7457L61.0337 44.529L85.8628 82.4457V48.904L79.5295 48.179C79.0462 45.4999 80.9878 43.5582 83.4253 43.3165L100.225 42.3415Z" fill="black" style="fill:black;fill-opacity:1;"/>
</svg>
