<svg width="185" height="184" viewBox="0 0 185 184" fill="none" xmlns="http://www.w3.org/2000/svg">
<path d="M184.667 68.8335V61.3335H183.833L183 60.5002L182.167 59.6668L94.6667 1.3335C93 0.500163 91.3333 0.500163 90.5 1.3335L3 59.6668L2.16667 60.5002L1.33333 61.3335C1.33333 61.3335 1.33333 62.1668 0.5 62.1668V122.167C0.5 122.167 0.5 123 1.33333 123L2.16667 123.833L3 124.667L89.6667 183C91.3333 183.833 93 183.833 93.8333 183L181.333 124.667L182.167 123.833L183 123C183 123 183 122.167 183.833 122.167V121.333L184.667 68.8335ZM97.1667 58.0002V19.6668C97.1667 18.0002 98 16.3335 99.6667 16.3335C101.333 15.5002 103 15.5002 103.833 16.3335L168 59.6668C168.833 60.5002 169.667 61.3335 169.667 63.0002V64.6668C169.667 66.3335 168.833 67.1668 168 68.0002L138.833 87.1668C138 88.0002 137.167 88.0002 136.333 88.0002C135.5 88.0002 134.667 88.0002 133.833 87.1668L98 63.0002C97.1667 62.1668 96.3333 61.3335 96.3333 59.6668V58.0002H97.1667ZM16.3333 63.0002C16.3333 61.3335 17.1667 60.5002 18 59.6668L82.1667 16.3335C83.8333 15.5002 85.5 15.5002 86.3333 16.3335C88 17.1668 88.8333 18.8335 88.8333 19.6668V59.6668C88.8333 61.3335 88 62.1668 87.1667 63.0002L51.3333 86.3335C50.5 87.1668 49.6667 87.1668 48.8333 87.1668C48 87.1668 47.1667 87.1668 46.3333 86.3335L18 67.1668C17.1667 66.3335 16.3333 65.5002 16.3333 63.8335V63.0002ZM13.8333 111.333C13 111.333 12.1667 111.333 12.1667 110.5C10.5 109.667 9.66667 108 9.66667 107.167V79.6668C9.66667 78.0002 10.5 76.3335 12.1667 76.3335C13.8333 75.5002 15.5 75.5002 16.3333 76.3335L37.1667 90.5002C38 91.3335 38.8333 92.1668 38.8333 93.8335C38.8333 95.5002 38 96.3335 37.1667 97.1668L16.3333 111.333C15.5 110.5 14.6667 111.333 13.8333 111.333ZM88.8333 165.5C88.8333 167.167 88 168.833 86.3333 168.833C85.5 168.833 84.6667 169.667 84.6667 169.667C83.8333 169.667 83 169.667 82.1667 168.833L18 125.5C17.1667 124.667 16.3333 123.833 16.3333 122.167C16.3333 120.5 17.1667 119.667 18 118.833L47.1667 99.6668C48.8333 98.8335 50.5 98.8335 52.1667 99.6668L88 123.833C88.8333 124.667 89.6667 125.5 89.6667 127.167V165.5H88.8333ZM93 116.333C92.1667 116.333 91.3333 116.333 90.5 115.5L61.3333 96.3335C60.5 95.5002 59.6667 94.6668 59.6667 93.0002V91.3335C59.6667 89.6668 60.5 88.8335 61.3333 88.0002L90.5 68.8335C92.1667 68.0002 93.8333 68.0002 95.5 68.8335L124.667 88.0002C125.5 88.8335 126.333 89.6668 126.333 91.3335V93.0002C126.333 94.6668 125.5 95.5002 124.667 96.3335L95.5 115.5C94.6667 116.333 93.8333 116.333 93 116.333ZM168 125.5L103.833 168.833C103 169.667 102.167 169.667 101.333 169.667C100.5 169.667 99.6667 169.667 99.6667 168.833C98 168 97.1667 166.334 97.1667 165.5V127.167C97.1667 125.5 98 124.667 98.8333 123.833L134.667 99.6668C136.333 98.8335 138 98.8335 139.667 99.6668L168.833 118.833C169.667 119.667 170.5 120.5 170.5 122.167C169.667 123.833 168.833 124.667 168 125.5ZM176.333 107.167C176.333 108.833 175.5 110.5 173.833 110.5C173 110.5 172.167 111.333 172.167 111.333C171.333 111.333 170.5 111.333 169.667 110.5L148.833 96.3335C148 95.5002 147.167 94.6668 147.167 93.0002C147.167 91.3335 148 90.5002 148.833 89.6668L169.667 75.5002C171.333 74.6668 173 74.6668 173.833 75.5002C175.5 76.3335 176.333 78.0002 176.333 78.8335V107.167Z" fill="black" style="fill:black;fill-opacity:1;"/>
</svg>
